# xmcd
#
# Track frame offsets:
#	150
#	16399
#	28223
#	37148
#	49252
#	62802
#	75952
#	87366
#	100452
#	113471
#	125904
#	138134
#	147175
#	159577
#	168601
#	178225
#	187050
#	197595
#	210558
#
# Disc length: 3063 seconds
#
# Revision: 0
# Processed by: cddbd v1.5.1PL0 Copyright (c) Steve Scherf et al.
# Submitted via: EasyCDDAExtractor 4.6.9.1
#
DISCID=130bf513
DTITLE=Ivory Joe Hunter - Blues at Midnight
DYEAR=1998
DGENRE=Blues
TTITLE0=You Taught Me To Love
TTITLE1=Jumping At The Dew Drop
TTITLE2=Adios Senorita
TTITLE3=High Cost, Low Pay Blues
TTITLE4=We're Gonna Boogie
TTITLE5=Heavy Hearted Blues
TTITLE6=Gazing
TTITLE7=Ivory Joe's Boogie
TTITLE8=Bad Luck Blues
TTITLE9=Tavern Swing
TTITLE10=The Cold Grey Light Of Dawn
TTITLE11=Coming Down With The Blues
TTITLE12=Can I Help It
TTITLE13=Empty Arms
TTITLE14=I'll Give You All Night To Stop
TTITLE15=Stolen Moments
TTITLE16=Working On Me
TTITLE17=Brenda Brown
TTITLE18=I Almost Lost My Mind
EXTD=
EXTT0=
EXTT1=
EXTT2=
EXTT3=
EXTT4=
EXTT5=
EXTT6=
EXTT7=
EXTT8=
EXTT9=
EXTT10=
EXTT11=
EXTT12=
EXTT13=
EXTT14=
EXTT15=
EXTT16=
EXTT17=
EXTT18=
PLAYORDER=
